<svg width="28" height="38" viewBox="0 0 28 38" fill="none" xmlns="http://www.w3.org/2000/svg">
<path d="M13.8052 24C17.0865 24 19.8052 21.2812 19.8052 18V6C19.8052 2.625 17.0865 0 13.8052 0C10.524 0 7.8052 2.625 7.8052 6V18C7.8052 21.2812 10.524 24 13.8052 24ZM25.6177 18C24.6802 18 23.8365 18.6562 23.649 19.6875C22.8052 24.375 18.774 27.9375 13.8052 27.9375C8.83645 27.9375 4.8052 24.375 3.96145 19.6875C3.77395 18.6562 2.9302 18 1.9927 18C0.77395 18 -0.16355 19.0312 0.0239502 20.25C0.96145 26.25 5.7427 30.9375 11.8365 31.7812V36C11.8365 37.0312 12.6802 37.9688 13.8052 37.9688C14.9302 37.9688 15.774 37.0312 15.774 36V31.7812C21.8677 30.9375 26.649 26.25 27.5865 20.25C27.8677 19.0312 26.8365 18 25.6177 18Z" fill="white"/>
</svg>
