<svg width="68" height="68" viewBox="0 0 68 68" fill="none" xmlns="http://www.w3.org/2000/svg">
<g opacity="0.25">
<path d="M18.7 22.1C12.1822 22.1 6.79999 27.4856 6.79999 34C6.79999 36.975 7.60579 39.5522 9.14939 41.5174C10.2782 42.9556 11.9476 43.7376 13.5694 44.5774C13.6578 47.294 13.5014 48.0386 11.3254 52.3974C10.1796 54.689 12.75 57.0486 14.9362 55.7124C26.5132 48.586 30.6 40.2322 30.6 34C30.6 27.4856 25.2178 22.1 18.7 22.1ZM49.3 22.1C42.7822 22.1 37.4 27.4856 37.4 34C37.4 36.975 38.2058 39.5522 39.7494 41.5174C40.8782 42.9556 42.5476 43.7376 44.1694 44.5774C44.2578 47.294 44.1014 48.0386 41.9254 52.3974C40.7796 54.689 43.35 57.0486 45.5362 55.7124C57.1132 48.586 61.2 40.2322 61.2 34C61.2 27.4856 55.8178 22.1 49.3 22.1Z" fill="#9CA3AF"/>
</g>
</svg>
