<svg width="12" height="16" viewBox="0 0 12 16" fill="none" xmlns="http://www.w3.org/2000/svg">
<path d="M5.83333 10C5.13889 10 4.54861 9.75694 4.0625 9.27083C3.57639 8.78472 3.33333 8.19444 3.33333 7.5V2.5C3.33333 1.80556 3.57639 1.21528 4.0625 0.729167C4.54861 0.243056 5.13889 0 5.83333 0C6.52778 0 7.11806 0.243056 7.60417 0.729167C8.09028 1.21528 8.33333 1.80556 8.33333 2.5V7.5C8.33333 8.19444 8.09028 8.78472 7.60417 9.27083C7.11806 9.75694 6.52778 10 5.83333 10ZM5 15.8333V13.2708C3.55556 13.0764 2.36111 12.4306 1.41667 11.3333C0.472222 10.2361 0 8.95833 0 7.5H1.66667C1.66667 8.65278 2.07292 9.63542 2.88542 10.4479C3.69792 11.2604 4.68056 11.6667 5.83333 11.6667C6.98611 11.6667 7.96875 11.2604 8.78125 10.4479C9.59375 9.63542 10 8.65278 10 7.5H11.6667C11.6667 8.95833 11.1944 10.2361 10.25 11.3333C9.30556 12.4306 8.11111 13.0764 6.66667 13.2708V15.8333H5Z" fill="#13ECA4"/>
</svg>
