<svg width="15" height="17" viewBox="0 0 15 17" fill="none" xmlns="http://www.w3.org/2000/svg">
<path d="M4.17969 13.3203C4.60938 13.3203 5 12.9297 5 12.5V4.14062C5 3.71094 4.60938 3.32031 4.17969 3.32031C3.71094 3.32031 3.32031 3.71094 3.32031 4.14062V12.5C3.32031 12.9297 3.71094 13.3203 4.17969 13.3203ZM7.5 16.6406C7.96875 16.6406 8.32031 16.2891 8.32031 15.8203V0.820312C8.32031 0.351562 7.96875 0 7.5 0C7.03125 0 6.67969 0.351562 6.67969 0.820312V15.8203C6.67969 16.2891 7.03125 16.6406 7.5 16.6406ZM0.820312 10C1.28906 10 1.67969 9.60938 1.67969 9.14062V7.5C1.67969 7.03125 1.28906 6.64062 0.820312 6.64062C0.390625 6.64062 0 7.03125 0 7.5V9.14062C0 9.60938 0.390625 10 0.820312 10ZM10.8203 13.3203C11.2891 13.3203 11.6797 12.9297 11.6797 12.5V4.14062C11.6797 3.71094 11.2891 3.32031 10.8203 3.32031C10.3906 3.32031 10 3.71094 10 4.14062V12.5C10 12.9297 10.3906 13.3203 10.8203 13.3203ZM13.3203 7.5V9.14062C13.3203 9.60938 13.7109 10 14.1797 10C14.6094 10 15 9.60938 15 9.14062V7.5C15 7.03125 14.6094 6.64062 14.1797 6.64062C13.7109 6.64062 13.3203 7.03125 13.3203 7.5Z" fill="#10221C"/>
</svg>
